PathFileType	4	(X/Y/Z)	C:/Users/beibeiliu/ov580/test_trc/User1\sequence.12_training_dense_right.trc
DataRate	CameraRate	NumFrames	NumMarkers	Units	OrigDataRate	OrigDataStartFrame	OrigNumFrames
120	120	24	19	mm	120	39	304
Frame#	Time	ThumbCMC			ThumbMCP			ThumbIP			ThumbTip			IndexMCP			IndexPIP			IndexTip			MiddleMCP			MiddlePIP			MiddleTip			RingMCP			RingPIP			RingTip			PinkyMCP			PinkyPIP			PinkyTip			BackHand1			BackHand2			BackHand3	
		X0	Y0	Z0	X1	Y1	Z1	X2	Y2	Z2	X3	Y3	Z3	X4	Y4	Z4	X5	Y5	Z5	X6	Y6	Z6	X7	Y7	Z7	X8	Y8	Z8	X9	Y9	Z9	X10	Y10	Z10	X11	Y11	Z11	X12	Y12	Z12	X13	Y13	Z13	X14	Y14	Z14	X15	Y15	Z15	X16	Y16	Z16	X17	Y17	Z17	X18	Y18	Z18	
38	0.316667	154.491	83.1869	22.3132	122.071	73.8281	12.1335	98.818	63.8812	-5.57612	82.2472	48.0856	-12.9271	165.965	61.0266	-63.5246	157.515	53.4869	-89.903	142.989	33.6236	-107.598	197.659	41.3448	-62.7936	193.508	29.2185	-92.5733	179.057	4.22644	-115.22	207.712	24.2043	-54.8238	207.69	7.72838	-78.3969	190.882	-12.1445	-94.7115	212.305	-1.58285	-24.9056	209.046	-21.7808	-37.678	193.514	-37.2352	-55.1957	211.575	46.7514	-1.62449	218.955	59.8419	24.07	193.631	76.5318	2.29725	
39	0.325	158.148	88.3467	20.5011	126.527	78.9856	5.79346	106.413	70.3009	-9.06364	86.6838	58.447	-15.799	170.168	62.0454	-58.3361	163.619	55.2446	-88.2674	146.601	37.7319	-108.103	197.617	38.724	-65.3024	194.479	21.1294	-93.5935	178.483	-1.91085	-113.163	208.087	14.8122	-52.9269	202.432	0.578804	-78.5085	184.019	-18.5408	-93.5835	204.943	-7.30434	-25.594	198.022	-29.5977	-37.0984	179.895	-44.7111	-52.1778	214.336	38.2642	-1.20554	222.594	50.6892	29.1821	198.165	74.1626	2.03483	
40	0.333333	166.466	88.407	16.5955	134.751	84.1179	6.86187	111.83	79.9288	-8.49764	92.3831	68.5902	-20.1734	176.65	60.15	-59.8041	169.785	49.3357	-87.8489	150.055	34.3092	-109.664	200.614	29.3731	-60.5459	194.744	17.7417	-88.5258	177.255	-3.92087	-112.028	204.988	7.64332	-45.8579	198.352	-6.66431	-74.9817	181.194	-24.2943	-89.4253	198.304	-17.0808	-18.8398	186.817	-36.202	-31.3426	169.56	-49.5343	-45.9424	212.967	33.0672	-0.637616	224.981	43.9801	29.0731	203.992	65.7778	4.81875	
41	0.341667	175.819	86.9111	16.593	143.216	90.9525	7.23862	121.035	86.1757	-12.2093	96.9825	78.9926	-23.9931	181.104	58.1918	-61.0982	172.879	47.6559	-88.8248	155.774	37.7275	-108.015	200.34	24.9505	-63.2374	194.311	8.74097	-88.2739	174.718	-9.75698	-110.872	201.508	0.684405	-47.713	194.572	-10.8523	-72.0919	171.685	-29.1713	-88.8678	189.826	-19.7277	-14.9333	173.41	-36.7049	-30.9946	158.715	-49.9828	-41.464	214.668	26.216	2.27644	222.577	34.9194	28.3686	208.145	64.2003	4.78491	
42	0.35	184.284	84.7015	14.7846	152.85	92.3404	5.74792	128.798	94.524	-13.8301	104.524	90.5528	-26.4557	185.555	50.1735	-63.6456	177.321	43.1131	-86.6529	159.765	34.4638	-107.532	200.624	16.9142	-61.0534	194.43	4.68842	-84.9093	174.112	-9.72159	-110.058	196.034	-0.568035	-45.9008	187.999	-17.4285	-71.5803	168.935	-26.7521	-87.5843	181.121	-22.8314	-13.6487	167.204	-37.2234	-25.2936	147.558	-48.8515	-41.7971	212.978	20.3328	2.9565	223.135	26.7401	29.1588	212.016	56.9535	1.92307	
43	0.358333	191.555	86.0711	15.2558	161.466	92.9133	4.15376	139.65	97.8892	-12.7109	117.507	97.4051	-24.3266	190.423	47.9746	-58.4989	180.525	43.7876	-90.9434	164.68	36.2213	-108.435	198.269	16.7428	-56.4526	191.713	5.08287	-87.3285	173.2	-7.8013	-109.27	194.008	-3.9851	-43.1103	182.124	-19.6368	-71.9491	162.818	-31.1718	-85.1621	173.897	-24.2929	-14.6538	158.038	-33.3552	-27.55	138.677	-43.6703	-41.1738	211.314	16.3408	3.804	223.677	21.6863	29.7439	216.944	49.4539	7.04052	
44	0.366667	197.073	79.8091	13.8591	170.096	94.3539	4.59706	148.453	100.934	-12.4369	125.127	103.25	-25.2803	195.058	47.7001	-63.2547	186.308	43.5339	-87.4018	166.883	32.8816	-109.059	198.097	14.591	-59.536	189.304	0.203702	-86.3816	170.073	-8.65271	-110.642	189.319	-7.62767	-46.0483	178.081	-20.1037	-72.3116	157.713	-28.7912	-86.2328	168.909	-18.6911	-17.3849	149.726	-31.4043	-27.6361	132.418	-35.7034	-44.8332	210.19	10.6454	0.118554	221.772	17.1777	34.314	220.303	47.5469	7.24733	
45	0.375	203.923	78.4338	14.8773	176.79	97.0076	1.89145	157.04	107.376	-15.0289	132.498	110.716	-27.9341	198.811	44.4327	-57.7707	189.998	43.1313	-87.3616	170.198	37.0971	-111.049	198.612	14.0356	-58.7308	190.139	3.44611	-85.2033	167.667	-7.97952	-110.064	187.06	-4.40286	-42.5458	173.753	-19.197	-71.1115	153.97	-25.6757	-88.0615	162.883	-20.5469	-16.0182	148.025	-25.3231	-27.454	125.33	-35.2846	-41.6553	208.136	11.1498	2.59297	221.907	10.12	35.433	223.175	44.9376	4.11217	
46	0.383333	210.337	79.7506	15.1354	185.185	96.8031	2.88896	163.721	109.892	-16.4557	143.936	112.835	-24.8019	201.954	47.3045	-59.4051	192	40.3894	-86.8419	171.466	37.4045	-111.711	197.097	11.9751	-57.243	187.537	2.23012	-86.7327	165.811	-5.72786	-109.87	184.819	-4.32255	-42.7448	170.214	-17.2397	-70.9731	148.984	-21.323	-88.5631	157.494	-19.2228	-15.2216	137.138	-24.472	-27.0149	121.742	-26.2091	-44.0756	203.078	4.25931	0.981115	218.735	6.08848	31.1422	224.062	37.1988	5.97663	
47	0.391667	215.894	73.37	18.2656	192.232	99.5446	3.05189	173.932	111.959	-13.6577	150.936	113.494	-26.979	205.224	46.7893	-58.1983	193.859	38.5427	-87.7725	177.981	42.4495	-109.876	195.557	8.31374	-57.8684	184.861	0.963891	-88.9341	164.362	-1.9815	-113.91	182.097	-5.31653	-41.8792	165.222	-18.4431	-70.44	146.513	-17.5415	-87.5031	155.084	-14.2667	-15.683	137.567	-17.3041	-29.3051	118.771	-20.906	-44.9991	204.227	2.4643	3.93379	219.365	6.17654	34.5133	226.922	35.1115	9.38665	
48	0.4	219.843	74.0665	17.3415	198.499	99.7018	4.44203	178.258	111.601	-15.626	158.351	117.968	-24.636	206.116	41.7244	-63.1251	199.642	42.201	-86.5662	178.764	40.8271	-108.018	194.917	7.63261	-58.1466	185.685	2.5085	-87.2474	163.742	-0.0617472	-112.938	181.634	-4.38811	-44.6073	166.69	-14.987	-68.3176	139.998	-15.0308	-89.6339	153.903	-11.2525	-14.1993	132.548	-16.8819	-25.1275	115.517	-14.8124	-44.3658	202.436	2.59031	5.72431	216.335	1.69103	32.503	227.645	32.2875	8.07579	
49	0.408333	221.255	69.9548	15.6601	200.896	98.0644	-0.426377	185.05	112.356	-13.1467	162.311	118.874	-26.9378	206.959	41.1461	-59.403	196.764	40.2138	-90.9702	177.562	43.6822	-112.212	197.168	11.902	-56.6089	181.645	-0.462541	-88.4013	162.905	1.10634	-111.002	177.64	-7.07987	-44.2507	165.704	-12.1866	-70.6201	139.876	-11.3507	-90.4816	154.098	-8.36282	-16.6222	130.324	-12.5623	-25.9233	113.622	-10.9347	-44.3858	200.95	1.50826	2.64947	214.426	3.52311	31.8708	228.457	28.8357	8.02861	
50	0.416667	223.913	72.5748	13.8978	205.199	100.323	2.60017	188.815	112.396	-12.9966	165.842	121.734	-28.4228	211.38	41.607	-61.9022	201.953	40.8475	-90.6001	182.506	44.7781	-110.865	196.936	9.08653	-61.6977	185.879	3.63535	-87.3075	160.555	-0.212706	-110.37	177.177	-6.95342	-44.3587	163.441	-12.4166	-69.99	137.676	-9.52014	-89.649	151.282	-7.41834	-18.2522	131.705	-8.87614	-32.0959	108.799	-6.11565	-43.0455	201.355	3.31639	-1.31213	214.819	1.4357	29.9783	226.991	27.5441	9.01523	
51	0.425	226.885	72.7903	17.6325	206.795	97.7153	-0.208223	190.566	110.636	-13.9295	169.179	120.903	-28.9005	211.355	40.4394	-58.864	202.205	39.9091	-87.2866	185.011	48.2642	-111.943	197.479	10.6306	-57.2318	186.697	3.7282	-86.8972	163.503	5.13083	-115.23	176.771	-5.99439	-43.4815	162.438	-9.38877	-75.2086	137.822	-6.74691	-90.9882	150.077	-6.29889	-20.6897	130.6	-7.53548	-28.6465	107.538	-1.12407	-48.9204	200.995	2.75011	-1.31423	211.894	-1.22046	32.2994	229.524	28.047	7.29122	
52	0.433333	227.668	71.3176	15.6539	208.757	99.2672	1.49101	191.177	109.986	-16.2619	171.814	122.356	-28.1905	211.217	39.8822	-63.2312	204.562	42.2465	-91.9731	181.051	46.6723	-113.923	197.458	7.41693	-60.2044	187.822	4.57922	-88.5741	162.034	3.06532	-112.942	178.696	-4.68984	-48.368	163.05	-9.86765	-73.7517	138.502	-5.15803	-92.054	152.008	-5.66976	-21.3283	131.242	-5.5066	-33.9105	110.88	0.721047	-50.2381	200.491	0.366794	0.255072	214.379	2.4871	33.8214	226.942	26.6694	7.54939	
53	0.441667	227.017	70.9759	16.4193	209.874	100.303	2.11279	192.892	111.773	-13.9235	169.157	121.617	-31.4554	212.201	40.7148	-59.8835	203.563	39.0263	-87.7612	183.169	45.121	-109.761	199.583	10.629	-59.626	185.361	1.57167	-91.115	163.043	2.04282	-112.274	177.938	-6.95293	-48.0413	163.414	-11.6866	-72.5902	141.299	-1.94168	-94.2246	151.465	-6.42169	-18.9761	130.446	-6.73193	-30.1003	113.222	0.520592	-50.8477	201.924	0.817519	2.46164	214.235	1.54434	32.3394	230.172	28.3325	6.1817	
54	0.45	224.004	68.7432	16.9616	206.539	95.5644	3.49331	189.126	110.055	-16.9872	169.205	119.268	-27.4752	211.137	39.0659	-63.793	202.343	40.9852	-92.6798	183.717	45.589	-110.793	199.088	8.63645	-61.1524	185.857	1.95373	-91.7173	166.844	4.391	-113.249	180.119	-5.12879	-49.2742	163.922	-13.7215	-71.9258	143.915	-6.49433	-91.1987	150.279	-8.27953	-21.851	130.154	-6.77334	-33.7783	107.822	0.92694	-51.3531	202.157	3.23118	-0.895498	213.501	0.525779	33.2347	229.607	28.0507	3.82202	
55	0.458333	220.926	69.5408	15.5241	201.098	95.2002	-0.83361	184.944	109.33	-15.1434	161.139	114.487	-30.693	211.353	42.225	-63.0596	200.277	40.2178	-90.6483	182.238	44.9734	-109.973	199.851	8.76848	-60.0843	188.702	2.29126	-89.5366	164.328	2.12893	-115.175	181.212	-7.5256	-44.4909	167.831	-11.879	-76.3764	143.524	-11.792	-91.6618	155.108	-9.94107	-20.0497	130.732	-12.0694	-32.1895	113.83	-4.00827	-52.1698	203.315	1.31025	-0.812847	214.308	2.45129	33.7032	229.902	31.978	4.43948	
56	0.466667	217.197	72.6273	14.4938	193.142	96.9944	-0.195305	175.776	106.62	-18.0143	153.315	113.028	-30.9664	208.701	41.9848	-63.4031	201.092	43.2122	-88.9017	179.158	46.6686	-111.982	202.051	10.0703	-59.45	191.189	1.34558	-87.0421	168.967	1.71573	-113.68	186.478	-5.20527	-45.6328	171.228	-18.4276	-72.7934	149.13	-16.9839	-89.8542	159.267	-12.6909	-21.8931	135.938	-18.3979	-31.298	113.695	-11.0524	-47.6643	204.521	2.75175	2.31725	217.385	4.37943	32.556	227.418	32.3865	5.13353	
57	0.475	210.963	76.5747	15.6473	183.53	97.5139	-2.09063	163.567	107.929	-19.9437	144.395	108.532	-28.8104	207.624	47.1345	-61.8633	197.068	43.1947	-90.777	173.09	45.4024	-110.999	201.889	10.2637	-59.2505	192.788	2.58872	-91.1926	169.975	-0.730343	-112.75	188.034	-7.80446	-44.0059	176.934	-18.6937	-71.9853	154.96	-17.1841	-93.2526	160.149	-18.7215	-20.1375	142.82	-21.2018	-34.124	116.893	-18.0202	-51.4573	208.566	7.61313	1.14688	218.088	6.95259	29.9366	226.013	36.1233	5.40555	
58	0.483333	203.682	77.8568	13.3319	175.008	95.9288	2.47835	156.13	106.017	-14.3591	132.835	103.996	-28.878	202.447	47.5203	-61.2723	193.11	47.5318	-92.2643	170.301	46.4811	-109.802	202.794	13.665	-57.9808	192.259	1.06183	-90.8834	170.041	0.513972	-116.493	192.28	-3.94709	-46.8685	177.685	-20.1773	-72.6514	158.298	-20.7468	-90.7843	165.44	-20.4075	-19.0273	145.592	-26.9751	-32.3183	122.729	-27.366	-48.7931	207.751	7.59775	3.36317	221.001	10.9952	34.9584	224.94	41.2384	7.20374	
59	0.491667	197.197	78.6258	15.4125	166.829	96.7043	3.33843	145.809	96.522	-15.7662	124.486	99.2409	-25.7628	199.549	53.7534	-61.4718	189.203	47.4864	-89.4119	165.006	42.342	-108.732	203.317	15.5997	-61.7233	195.016	5.15796	-91.2364	174.227	-0.939329	-113.295	194.654	-5.73455	-46.9212	182.948	-19.274	-73.6393	160.892	-23.6548	-89.9862	171.769	-21.3972	-18.0681	152.063	-31.0886	-30.7165	131.071	-29.5509	-47.9989	209.109	11.0744	-1.85988	223.112	15.2622	33.72	223.419	44.9091	7.81146	
60	0.5	190.113	83.5627	18.9436	159.242	89.0124	4.38195	137.388	94.4704	-12.494	113.417	93.7155	-25.4895	196.701	53.8022	-62.8157	184.291	51.8505	-92.0425	161.467	46.3433	-110.544	205.125	23.0098	-58.7076	198.384	13.3996	-90.016	173.98	-2.57414	-115.78	198.888	-3.95421	-50.0846	188.303	-15.1437	-74.2384	165.705	-22.9031	-92.324	178.044	-22.372	-18.3722	158.68	-29.9775	-36.8305	137.851	-36.2366	-47.6197	213.45	13.3362	-0.165382	225.115	19.733	32.2688	220.35	50.3117	4.73494	
61	0.508333	181.129	82.0483	17.4048	148.4	89.1484	8.89526	126.211	88.9719	-10.5196	107.838	79.9335	-23.1988	191.789	59.7377	-56.9689	182.179	51.1745	-89.5898	161.212	47.0352	-106.392	205.221	24.4649	-56.6988	199.952	17.3582	-91.6401	180.185	3.96499	-114.693	202.796	4.97811	-49.8555	196.432	-7.77014	-74.9423	175.728	-20.4217	-92.8553	186.234	-20.614	-24.935	171.417	-32.5338	-34.7066	145.707	-37.9854	-54.1672	214.516	18.4435	-0.549369	226.04	26.2101	31.7023	215.208	59.5111	6.88252	
